
<?xml version="1.0" encoding="UTF-8"?>
<svg id="Layer_1" xmlns="http://www.w3.org/2000/svg" width="325" height="100" viewBox="0 0 325 100">
    <defs>
        <style>.cls-1{fill:#fff;stroke-width:0px;}</style>
    </defs>
    <path class="cls-1" d="M119.2,64.54h-31.57l15.79-29.08,15.79,29.08ZM94.64,60.37h17.55l-8.77-16.16-8.77,16.16Z"/>
    <path class="cls-1" d="M66.83,52.86l8.95,11.6h-5.34l-8.26-11.11h-3.46v11.11h-4.36v-28.91h7.78c5.55,0,6.58.72,8.28,2.15,1.87,1.6,2.81,3.71,2.81,6.33,0,2.05-.59,4.53-1.76,6.01-1.17,1.47-2.72,2.42-4.64,2.83ZM58.73,49.54h4.06c4.13,0,6.2-2.3,6.2-5.46,0-2.96-2.01-4.44-6.03-4.44h-4.22v9.9Z"/>
    <path class="cls-1" d="M130.82,64.48v-29l21.09,18.46v-18.38h4.36v28.96l-21.09-18.4v18.36h-4.36Z"/>
    <path class="cls-1" d="M191.1,37.12v5.17c-2.52-2.11-5.13-3.16-7.83-3.16-2.97,0-5.47,1.07-7.51,3.2-2.05,2.12-3.07,4.72-3.07,7.79s1.02,5.59,3.07,7.68c2.05,2.09,4.56,3.13,7.53,3.13,1.54,0,2.84-.25,3.91-.75.6-.25,1.22-.59,1.86-1.01.64-.42,1.32-.94,2.03-1.54v5.26c-2.5,1.41-5.12,2.12-7.87,2.12-4.13,0-7.66-1.44-10.58-4.33-2.91-2.91-4.36-6.42-4.36-10.52,0-3.68,1.22-6.97,3.65-9.85,3-3.53,6.87-5.3,11.63-5.3,2.6,0,5.11.71,7.53,2.12Z"/>
    <path class="cls-1" d="M203.11,49.88c0-4.07,1.49-7.57,4.48-10.49,2.97-2.92,6.54-4.38,10.71-4.38s7.65,1.47,10.6,4.42c2.96,2.95,4.44,6.49,4.44,10.62s-1.49,7.68-4.46,10.58c-2.98,2.91-6.59,4.36-10.81,4.36-3.73,0-7.09-1.29-10.06-3.88-3.27-2.86-4.91-6.6-4.91-11.24ZM207.51,49.93c0,3.2,1.07,5.82,3.22,7.88,2.13,2.06,4.6,3.09,7.4,3.09,3.03,0,5.59-1.05,7.68-3.15,2.09-2.12,3.13-4.71,3.13-7.75s-1.03-5.67-3.09-7.75c-2.05-2.1-4.58-3.15-7.6-3.15s-5.55,1.05-7.62,3.15c-2.07,2.07-3.11,4.63-3.11,7.68Z"/>
    <path class="cls-1" d="M245.18,64.48v-29l21.09,18.46v-18.38h4.36v28.96l-21.09-18.4v18.36h-4.36Z"/>
</svg>