<svg id="Group_21013" data-name="Group 21013" xmlns="http://www.w3.org/2000/svg" width="37.458" height="20" viewBox="0 0 37.458 20">
  <path id="Path_7080" data-name="Path 7080" d="M214.09,8.786A8.785,8.785,0,0,0,222.875,0H217.46a3.374,3.374,0,0,1-3.37,3.371A3.375,3.375,0,0,1,210.719,0H205.3a8.786,8.786,0,0,0,8.786,8.786" transform="translate(-185.418)" fill="#fff"/>
  <path id="Path_7081" data-name="Path 7081" d="M205.3,124.56a8.786,8.786,0,0,1,17.572,0Z" transform="translate(-185.41 -104.56)" fill="#fff"/>
  <path id="Path_7082" data-name="Path 7082" d="M7.543,0c6.6,0,9.914,5.029,9.914,10.029S14.143,20,7.543,20H0V0Zm0,15.343a5.032,5.032,0,0,0,5.086-5.314c0-2.629-1.714-5.4-5.086-5.4H4.857V15.343Z" fill="#fff"/>
</svg>
